<?xml version="1.0" standalone="no"?>
<!DOCTYPE svg PUBLIC "-//W3C//DTD SVG 20010904//EN"
 "http://www.w3.org/TR/2001/REC-SVG-20010904/DTD/svg10.dtd">
<svg version="1.0" xmlns="http://www.w3.org/2000/svg"
 width="1026.000000pt" height="1026.000000pt" viewBox="0 0 1026.000000 1026.000000"
 preserveAspectRatio="xMidYMid meet">

<g transform="translate(0.000000,1026.000000) scale(0.100000,-0.100000)"
fill="#000000" stroke="none">
<path d="M380 8550 l0 -1330 1330 0 1330 0 0 1330 0 1330 -1330 0 -1330 0 0
-1330z m2280 0 l0 -950 -950 0 -950 0 0 950 0 950 950 0 950 0 0 -950z"/>
<path d="M1140 8550 l0 -570 570 0 570 0 0 570 0 570 -570 0 -570 0 0 -570z"/>
<path d="M3420 9690 l0 -190 190 0 190 0 0 -190 0 -190 190 0 190 0 0 -190 0
-190 190 0 190 0 0 -190 0 -190 380 0 380 0 0 -380 0 -380 -190 0 -190 0 0
190 0 190 -380 0 -380 0 0 190 0 190 -190 0 -190 0 0 -190 0 -190 190 0 190 0
0 -570 0 -570 -190 0 -190 0 0 380 0 380 -190 0 -190 0 0 -380 0 -380 190 0
190 0 0 -380 0 -380 -190 0 -190 0 0 -190 0 -190 190 0 190 0 0 -380 0 -380
190 0 190 0 0 190 0 190 190 0 190 0 0 -380 0 -380 190 0 190 0 0 -190 0 -190
-190 0 -190 0 0 -190 0 -190 -190 0 -190 0 0 -190 0 -190 -380 0 -380 0 0
-190 0 -190 190 0 190 0 0 -380 0 -380 -190 0 -190 0 0 -380 0 -380 190 0 190
0 0 -190 0 -190 -190 0 -190 0 0 -380 0 -380 380 0 380 0 0 190 0 190 380 0
380 0 0 -190 0 -190 190 0 190 0 0 190 0 190 -190 0 -190 0 0 190 0 190 380 0
380 0 0 -190 0 -190 190 0 190 0 0 -190 0 -190 380 0 380 0 0 190 0 190 760 0
760 0 0 -190 0 -190 190 0 190 0 0 190 0 190 380 0 380 0 0 -190 0 -190 190 0
190 0 0 760 0 760 -190 0 -190 0 0 190 0 190 190 0 190 0 0 380 0 380 -190 0
-190 0 0 380 0 380 190 0 190 0 0 380 0 380 -190 0 -190 0 0 190 0 190 190 0
190 0 0 570 0 570 -190 0 -190 0 0 190 0 190 190 0 190 0 0 190 0 190 -190 0
-190 0 0 -190 0 -190 -950 0 -950 0 0 190 0 190 -190 0 -190 0 0 -190 0 -190
-190 0 -190 0 0 -190 0 -190 190 0 190 0 0 -190 0 -190 -380 0 -380 0 0 570 0
570 190 0 190 0 0 380 0 380 -190 0 -190 0 0 -190 0 -190 -190 0 -190 0 0 950
0 950 -380 0 -380 0 0 -190 0 -190 -380 0 -380 0 0 380 0 380 570 0 570 0 0
190 0 190 -760 0 -760 0 0 -190 0 -190 -190 0 -190 0 0 190 0 190 -190 0 -190
0 0 -190z m1520 -2280 l0 -190 190 0 190 0 0 190 0 190 190 0 190 0 0 -190 0
-190 -190 0 -190 0 0 -190 0 -190 190 0 190 0 0 -380 0 -380 190 0 190 0 0
-190 0 -190 -190 0 -190 0 0 -190 0 -190 760 0 760 0 0 -190 0 -190 190 0 190
0 0 190 0 190 190 0 190 0 0 190 0 190 -190 0 -190 0 0 190 0 190 -190 0 -190
0 0 190 0 190 190 0 190 0 0 -190 0 -190 190 0 190 0 0 -190 0 -190 190 0 190
0 0 -190 0 -190 570 0 570 0 0 -190 0 -190 -190 0 -190 0 0 -190 0 -190 -380
0 -380 0 0 -190 0 -190 190 0 190 0 0 -380 0 -380 190 0 190 0 0 -190 0 -190
190 0 190 0 0 -190 0 -190 -190 0 -190 0 0 -570 0 -570 -190 0 -190 0 0 -380
0 -380 -190 0 -190 0 0 380 0 380 -380 0 -380 0 0 -190 0 -190 -380 0 -380 0
0 -190 0 -190 -380 0 -380 0 0 190 0 190 -190 0 -190 0 0 190 0 190 -380 0
-380 0 0 190 0 190 -190 0 -190 0 0 380 0 380 190 0 190 0 0 190 0 190 -190 0
-190 0 0 380 0 380 190 0 190 0 0 190 0 190 190 0 190 0 0 190 0 190 -190 0
-190 0 0 190 0 190 190 0 190 0 0 380 0 380 -190 0 -190 0 0 -190 0 -190 -190
0 -190 0 0 190 0 190 190 0 190 0 0 380 0 380 190 0 190 0 0 190 0 190 -190 0
-190 0 0 190 0 190 -190 0 -190 0 0 190 0 190 190 0 190 0 0 -190z m-380
-1140 l0 -190 -190 0 -190 0 0 -190 0 -190 -190 0 -190 0 0 190 0 190 190 0
190 0 0 190 0 190 190 0 190 0 0 -190z m4940 -380 l0 -190 -380 0 -380 0 0
190 0 190 380 0 380 0 0 -190z m0 -1900 l0 -190 -190 0 -190 0 0 190 0 190
190 0 190 0 0 -190z m-5320 -2090 l0 -380 -190 0 -190 0 0 380 0 380 190 0
190 0 0 -380z"/>
<path d="M5320 5890 l0 -190 190 0 190 0 0 190 0 190 -190 0 -190 0 0 -190z"/>
<path d="M5700 4560 l0 -380 190 0 190 0 0 -190 0 -190 190 0 190 0 0 -760 0
-760 -380 0 -380 0 0 190 0 190 -190 0 -190 0 0 -190 0 -190 -190 0 -190 0 0
-190 0 -190 190 0 190 0 0 190 0 190 190 0 190 0 0 -380 0 -380 380 0 380 0 0
-190 0 -190 190 0 190 0 0 190 0 190 380 0 380 0 0 190 0 190 380 0 380 0 0
-190 0 -190 190 0 190 0 0 380 0 380 -190 0 -190 0 0 190 0 190 190 0 190 0 0
190 0 190 -190 0 -190 0 0 380 0 380 -380 0 -380 0 0 190 0 190 190 0 190 0 0
190 0 190 190 0 190 0 0 190 0 190 -190 0 -190 0 0 -190 0 -190 -380 0 -380 0
0 190 0 190 -190 0 -190 0 0 -190 0 -190 190 0 190 0 0 -380 0 -380 -380 0
-380 0 0 570 0 570 -380 0 -380 0 0 -380z m2280 -1710 l0 -570 -570 0 -570 0
0 570 0 570 570 0 570 0 0 -570z m-1140 -1140 l0 -190 -190 0 -190 0 0 190 0
190 190 0 190 0 0 -190z"/>
<path d="M7220 2850 l0 -190 190 0 190 0 0 190 0 190 -190 0 -190 0 0 -190z"/>
<path d="M4940 3420 l0 -380 380 0 380 0 0 380 0 380 -380 0 -380 0 0 -380z"/>
<path d="M7220 8550 l0 -1330 1330 0 1330 0 0 1330 0 1330 -1330 0 -1330 0 0
-1330z m2280 0 l0 -950 -950 0 -950 0 0 950 0 950 950 0 950 0 0 -950z"/>
<path d="M7980 8550 l0 -570 570 0 570 0 0 570 0 570 -570 0 -570 0 0 -570z"/>
<path d="M6460 9310 l0 -190 190 0 190 0 0 190 0 190 -190 0 -190 0 0 -190z"/>
<path d="M6460 8170 l0 -190 190 0 190 0 0 190 0 190 -190 0 -190 0 0 -190z"/>
<path d="M380 5130 l0 -1710 190 0 190 0 0 380 0 380 190 0 190 0 0 -190 0
-190 190 0 190 0 0 -190 0 -190 380 0 380 0 0 190 0 190 -380 0 -380 0 0 190
0 190 190 0 190 0 0 190 0 190 380 0 380 0 0 -190 0 -190 190 0 190 0 0 -190
0 -190 -190 0 -190 0 0 -190 0 -190 190 0 190 0 0 190 0 190 190 0 190 0 0
190 0 190 -190 0 -190 0 0 190 0 190 -190 0 -190 0 0 190 0 190 380 0 380 0 0
190 0 190 -570 0 -570 0 0 -190 0 -190 -190 0 -190 0 0 190 0 190 -190 0 -190
0 0 -380 0 -380 -190 0 -190 0 0 190 0 190 -190 0 -190 0 0 380 0 380 380 0
380 0 0 190 0 190 -190 0 -190 0 0 380 0 380 -380 0 -380 0 0 -1710z"/>
<path d="M1520 6650 l0 -190 190 0 190 0 0 -190 0 -190 190 0 190 0 0 380 0
380 -380 0 -380 0 0 -190z"/>
<path d="M2660 6650 l0 -190 190 0 190 0 0 190 0 190 -190 0 -190 0 0 -190z"/>
<path d="M2660 5890 l0 -190 190 0 190 0 0 190 0 190 -190 0 -190 0 0 -190z"/>
<path d="M3800 4370 l0 -190 190 0 190 0 0 190 0 190 -190 0 -190 0 0 -190z"/>
<path d="M380 1710 l0 -1330 1330 0 1330 0 0 1330 0 1330 -1330 0 -1330 0 0
-1330z m2280 0 l0 -950 -950 0 -950 0 0 950 0 950 950 0 950 0 0 -950z"/>
<path d="M1140 1710 l0 -570 570 0 570 0 0 570 0 570 -570 0 -570 0 0 -570z"/>
</g>
</svg>
